<svg width="154" height="185" viewBox="0 0 154 185" fill="none" xmlns="http://www.w3.org/2000/svg">
<path d="M83.2286 109.846C86.6216 108.553 89.4745 106.145 91.319 103.018L97.4298 92.656C105.71 78.6154 127.228 84.4878 127.228 100.788V125.543C127.228 134.384 120.061 141.552 111.219 141.552H86.9924C69.2169 141.552 64.6823 116.911 81.2933 110.583L83.2286 109.846Z" fill="#141718"/>
<path d="M54.6744 88.8845C54.4445 92.5081 55.4531 96.1023 57.535 99.0772L64.4321 108.933C73.778 122.288 59.5153 139.437 44.6808 132.681L22.1525 122.421C14.1062 118.756 10.5541 109.263 14.2186 101.217L24.2598 79.1686C31.6272 62.9918 55.9314 69.0779 54.8056 86.8177L54.6744 88.8845Z" fill="#141718"/>
<path d="M84.8625 78.3985C82.0439 76.1096 78.5309 74.8468 74.9001 74.8175L62.871 74.7202C46.5711 74.5885 40.8728 53.0238 54.9799 44.8572L76.4037 32.455C84.0555 28.0254 93.8493 30.6375 98.279 38.2892L110.417 59.2562C119.322 74.6399 100.269 90.9095 86.4702 79.704L84.8625 78.3985Z" fill="#141718"/>
</svg>
